<svg version="1.1" id="Layer_1" xmlns="http://www.w3.org/2000/svg" xmlns:xlink="http://www.w3.org/1999/xlink" x="0px" y="0px"
	 width="100%" viewBox="0 0 572 559" enable-background="new 0 0 572 559" xml:space="preserve">
<path fill="#FFFFFF" opacity="1.000000" stroke="none" 
	d="
M52.000000,560.000000 
	C35.008434,560.000000 18.016867,560.000000 1.018975,560.000000 
	C1.012650,373.767548 1.012650,187.535080 1.012650,1.000000 
	C91.354004,1.000000 181.708344,1.000000 272.540833,1.277278 
	C273.053864,1.736194 273.088776,1.917833 273.067810,2.558720 
	C273.011932,45.259319 273.011932,87.500671 273.011932,130.152313 
	C199.030457,130.152313 125.658150,130.152313 51.750076,130.152313 
	C51.750076,168.257065 51.750076,205.951538 51.750076,244.100006 
	C34.816502,244.100006 18.418200,244.100006 2.050686,244.100006 
	C2.050686,299.480499 2.050686,354.399261 2.050686,409.947083 
	C18.780970,409.947083 35.304073,409.947083 51.998489,409.947083 
	C51.998489,421.723541 51.986931,432.871063 52.000584,444.018585 
	C52.047508,482.328369 52.103256,520.638184 52.088921,559.206848 
	C52.014801,559.643799 52.007401,559.821899 52.000000,560.000000 
z"/>
<path fill="#FFFFFF" opacity="1.000000" stroke="none" 
	d="
M301.000000,1.000000 
	C391.621674,1.000000 482.243378,1.000000 572.932495,1.000000 
	C572.932495,187.333328 572.932495,373.666656 572.932495,560.000000 
	C556.254089,560.000000 539.595703,560.000000 522.457520,559.732910 
	C521.933289,559.293335 521.888855,559.120850 521.914429,558.487671 
	C521.984558,508.766388 521.984558,459.505798 521.984558,409.803162 
	C538.867798,409.803162 555.275085,409.803162 571.917236,409.803162 
	C571.917236,354.325836 571.917236,299.292053 571.917236,243.806229 
	C555.268188,243.806229 538.863647,243.806229 521.938782,243.806229 
	C521.938782,205.658188 521.938782,167.958069 521.938782,129.850891 
	C448.039062,129.850891 374.667206,129.850891 301.001434,129.850891 
	C301.001434,127.637177 301.003021,125.832893 301.001190,124.028610 
	C300.959686,83.385780 300.917847,42.742947 300.928223,1.827469 
	C300.986938,1.369884 300.993469,1.184942 301.000000,1.000000 
z"/>
<path fill="#864186" opacity="1.000000" stroke="none" 
	d="
M521.844360,558.948303 
	C521.888855,559.120850 521.933289,559.293335 521.988892,559.732910 
	C365.642578,560.000000 209.285187,560.000000 52.463882,560.000000 
	C52.007401,559.821899 52.014801,559.643799 52.547081,559.225342 
	C145.027466,558.990784 236.982971,559.004761 328.938477,558.999634 
	C393.240448,558.996033 457.542389,558.966309 521.844360,558.948303 
z"/>
<path fill="#AE80AE" opacity="1.000000" stroke="none" 
	d="
M300.531342,1.000000 
	C300.993469,1.184942 300.986938,1.369884 300.469177,1.788437 
	C291.013214,2.047856 282.068451,2.073664 273.123688,2.099472 
	C273.088776,1.917833 273.053864,1.736194 273.009491,1.277278 
	C282.020905,1.000000 291.041779,1.000000 300.531342,1.000000 
z"/>
<path fill="#5E025E" opacity="1.000000" stroke="none" 
	d="
M273.067810,2.558720 
	C282.068451,2.073664 291.013214,2.047856 300.417023,2.061080 
	C300.917847,42.742947 300.959686,83.385780 301.001190,124.028610 
	C301.003021,125.832893 301.001434,127.637177 301.001434,129.850891 
	C374.667206,129.850891 448.039062,129.850891 521.938782,129.850891 
	C521.938782,167.958069 521.938782,205.658188 521.938782,243.806229 
	C538.863647,243.806229 555.268188,243.806229 571.917236,243.806229 
	C571.917236,299.292053 571.917236,354.325836 571.917236,409.803162 
	C555.275085,409.803162 538.867798,409.803162 521.984558,409.803162 
	C521.984558,459.505798 521.984558,508.766388 521.914429,558.487671 
	C457.542389,558.966309 393.240448,558.996033 328.938477,558.999634 
	C236.982971,559.004761 145.027466,558.990784 52.613804,558.966431 
	C52.103256,520.638184 52.047508,482.328369 52.000584,444.018585 
	C51.986931,432.871063 51.998489,421.723541 51.998489,409.947083 
	C35.304073,409.947083 18.780970,409.947083 2.050686,409.947083 
	C2.050686,354.399261 2.050686,299.480499 2.050686,244.100006 
	C18.418200,244.100006 34.816502,244.100006 51.750076,244.100006 
	C51.750076,205.951538 51.750076,168.257065 51.750076,130.152313 
	C125.658150,130.152313 199.030457,130.152313 273.011932,130.152313 
	C273.011932,87.500671 273.011932,45.259319 273.067810,2.558720 
M312.500000,158.000885 
	C235.063095,158.000885 157.626205,158.000885 79.707535,158.000885 
	C79.707535,196.064804 79.707535,233.618698 79.707535,271.735229 
	C62.853439,271.735229 46.475731,271.735229 30.170433,271.735229 
	C30.170433,308.700928 30.170433,345.097870 30.170433,381.873230 
	C46.771255,381.873230 63.039906,381.873230 79.847664,381.873230 
	C79.847664,431.969727 79.847664,481.689240 79.847664,531.447021 
	C218.243195,531.447021 356.093781,531.447021 494.320099,531.447021 
	C494.320099,481.459747 494.320099,431.855835 494.320099,381.721924 
	C511.092773,381.721924 527.497986,381.721924 543.881287,381.721924 
	C543.881287,344.757874 543.881287,308.327179 543.881287,271.386902 
	C527.192505,271.386902 510.781403,271.386902 493.907867,271.386902 
	C493.907867,233.315765 493.907867,195.753952 493.907867,158.000885 
	C433.455170,158.000885 373.477600,158.000885 312.500000,158.000885 
z"/>
<path fill="#FFFEFF" opacity="1.000000" stroke="none" 
	d="
M313.000000,158.000885 
	C373.477600,158.000885 433.455170,158.000885 493.907867,158.000885 
	C493.907867,195.753952 493.907867,233.315765 493.907867,271.386902 
	C510.781403,271.386902 527.192505,271.386902 543.881287,271.386902 
	C543.881287,308.327179 543.881287,344.757874 543.881287,381.721924 
	C527.497986,381.721924 511.092773,381.721924 494.320099,381.721924 
	C494.320099,431.855835 494.320099,481.459747 494.320099,531.447021 
	C356.093781,531.447021 218.243195,531.447021 79.847664,531.447021 
	C79.847664,481.689240 79.847664,431.969727 79.847664,381.873230 
	C63.039906,381.873230 46.771255,381.873230 30.170433,381.873230 
	C30.170433,345.097870 30.170433,308.700928 30.170433,271.735229 
	C46.475731,271.735229 62.853439,271.735229 79.707535,271.735229 
	C79.707535,233.618698 79.707535,196.064804 79.707535,158.000885 
	C157.626205,158.000885 235.063095,158.000885 313.000000,158.000885 
M335.036530,345.479187 
	C360.228088,369.366272 403.196259,365.980621 424.260101,338.448822 
	C443.698242,313.041931 441.983368,280.007782 420.019012,256.748627 
	C396.904236,232.271194 354.009033,233.327454 331.368347,258.284821 
	C308.462555,283.534424 309.868835,322.550751 335.036530,345.479187 
M136.983597,292.501373 
	C136.939163,297.135925 136.501328,301.805908 136.915329,306.399139 
	C139.278229,332.614532 158.830643,354.216705 184.916565,359.713409 
	C210.470215,365.098022 237.425720,352.606842 250.071609,329.520569 
	C261.806915,308.096649 260.006195,281.600098 244.757599,262.901825 
	C227.806580,242.115982 205.807907,235.468918 179.948227,241.987686 
	C158.135345,247.486298 140.317154,268.360260 136.983597,292.501373 
M350.499847,461.262085 
	C357.587921,461.262085 364.675995,461.262085 371.813354,461.262085 
	C371.813354,451.690399 371.813354,442.766235 371.813354,433.618500 
	C315.178711,433.618500 258.782227,433.618500 202.271240,433.618500 
	C202.271240,442.932648 202.271240,451.990417 202.271240,461.262146 
	C251.562408,461.262146 300.531158,461.262146 350.499847,461.262085 
z"/>
<path fill="#5F035F" opacity="1.000000" stroke="none" 
	d="
M334.775421,345.236816 
	C309.868835,322.550751 308.462555,283.534424 331.368347,258.284821 
	C354.009033,233.327454 396.904236,232.271194 420.019012,256.748627 
	C441.983368,280.007782 443.698242,313.041931 424.260101,338.448822 
	C403.196259,365.980621 360.228088,369.366272 334.775421,345.236816 
M344.886230,293.727478 
	C341.795441,309.241058 350.483978,324.708740 364.324036,330.375061 
	C378.201660,336.056824 393.827393,331.836182 403.197906,319.737427 
	C411.470917,309.055725 411.592590,292.519592 403.482941,280.997833 
	C395.785797,270.062195 380.193604,264.866608 367.570587,268.970764 
	C355.668335,272.840576 348.352325,280.984222 344.886230,293.727478 
z"/>
<path fill="#5F045F" opacity="1.000000" stroke="none" 
	d="
M137.012344,292.063171 
	C140.317154,268.360260 158.135345,247.486298 179.948227,241.987686 
	C205.807907,235.468918 227.806580,242.115982 244.757599,262.901825 
	C260.006195,281.600098 261.806915,308.096649 250.071609,329.520569 
	C237.425720,352.606842 210.470215,365.098022 184.916565,359.713409 
	C158.830643,354.216705 139.278229,332.614532 136.915329,306.399139 
	C136.501328,301.805908 136.939163,297.135925 137.012344,292.063171 
M216.427811,273.988098 
	C210.853241,270.084869 204.788574,267.770538 197.870804,267.606445 
	C184.359573,267.285950 171.725449,275.390778 166.807236,287.776215 
	C161.706100,300.622284 165.271744,316.148193 175.300674,324.759155 
	C188.787354,336.339020 210.384064,335.142670 221.231445,322.214813 
	C233.990723,307.008362 232.196915,286.754700 216.427811,273.988098 
z"/>
<path fill="#600560" opacity="1.000000" stroke="none" 
	d="
M349.999878,461.262115 
	C300.531158,461.262146 251.562408,461.262146 202.271240,461.262146 
	C202.271240,451.990417 202.271240,442.932648 202.271240,433.618500 
	C258.782227,433.618500 315.178711,433.618500 371.813354,433.618500 
	C371.813354,442.766235 371.813354,451.690399 371.813354,461.262085 
	C364.675995,461.262085 357.587921,461.262085 349.999878,461.262115 
z"/>
<path fill="#FEFDFE" opacity="1.000000" stroke="none" 
	d="
M344.962280,293.321106 
	C348.352325,280.984222 355.668335,272.840576 367.570587,268.970764 
	C380.193604,264.866608 395.785797,270.062195 403.482941,280.997833 
	C411.592590,292.519592 411.470917,309.055725 403.197906,319.737427 
	C393.827393,331.836182 378.201660,336.056824 364.324036,330.375061 
	C350.483978,324.708740 341.795441,309.241058 344.962280,293.321106 
z"/>
<path fill="#FEFDFE" opacity="1.000000" stroke="none" 
	d="
M216.713867,274.212891 
	C232.196915,286.754700 233.990723,307.008362 221.231445,322.214813 
	C210.384064,335.142670 188.787354,336.339020 175.300674,324.759155 
	C165.271744,316.148193 161.706100,300.622284 166.807236,287.776215 
	C171.725449,275.390778 184.359573,267.285950 197.870804,267.606445 
	C204.788574,267.770538 210.853241,270.084869 216.713867,274.212891 
z"/>
</svg>