<?xml version="1.0" standalone="no"?>
<!DOCTYPE svg PUBLIC "-//W3C//DTD SVG 20010904//EN"
 "http://www.w3.org/TR/2001/REC-SVG-20010904/DTD/svg10.dtd">
<svg version="1.0" xmlns="http://www.w3.org/2000/svg"
 width="512.000000pt" height="512.000000pt" viewBox="0 0 512.000000 512.000000"
 preserveAspectRatio="xMidYMid meet">

<g transform="translate(0.000000,512.000000) scale(0.100000,-0.100000)"
fill="#000000" stroke="none">
<path d="M2230 4890 c-712 -74 -1330 -422 -1750 -985 -390 -524 -554 -1210
-444 -1865 19 -112 70 -315 85 -339 9 -14 10 -14 6 0 -9 29 12 173 37 249 14
41 29 102 35 135 15 83 52 133 128 171 56 27 74 46 181 181 98 123 127 153
161 166 53 22 86 21 137 -2 98 -44 129 -161 67 -251 -9 -14 -60 -79 -114 -145
-92 -115 -96 -123 -101 -177 -3 -40 -14 -72 -34 -105 l-30 -48 16 -53 15 -52
325 326 c307 308 359 352 421 367 19 5 31 18 43 51 22 57 83 112 140 127 41
10 44 13 50 51 10 60 30 92 110 176 l74 77 4 95 c3 81 9 105 36 161 91 190
314 287 514 223 17 -5 79 52 384 357 l363 363 -44 48 c-24 27 -49 65 -56 85
-16 49 -6 164 21 234 29 75 108 178 171 222 l52 36 -29 11 c-66 26 -267 73
-389 91 -149 23 -454 32 -585 19z"/>
<path d="M4305 3189 c-187 -187 -352 -347 -367 -355 -15 -8 -50 -14 -79 -14
-129 0 -227 130 -186 248 l15 43 -49 -46 c-55 -52 -85 -65 -144 -67 -53 -1
-82 8 -123 39 -65 49 -92 155 -56 224 l15 31 -43 -25 c-83 -48 -158 -43 -224
15 -63 55 -84 127 -60 199 14 40 1 29 -182 -154 l-197 -197 3 -88 c7 -182 -81
-328 -244 -404 -73 -34 -188 -47 -264 -29 l-45 10 -70 -69 c-72 -71 -122 -100
-175 -100 -24 0 -30 -4 -30 -22 -1 -67 -68 -148 -140 -169 -36 -11 -41 -16
-55 -67 -14 -45 -30 -69 -106 -147 l-89 -92 40 7 c88 16 179 -30 220 -111 36
-70 21 -180 -32 -236 l-22 -23 33 11 c18 6 57 9 87 7 140 -12 225 -162 165
-293 l-18 -41 47 10 c105 21 215 -48 239 -152 14 -56 8 -98 -20 -152 -24 -46
-628 -647 -702 -698 l-58 -40 57 -26 c98 -45 273 -106 388 -136 391 -100 779
-105 1177 -14 l67 15 -16 31 c-8 18 -17 54 -20 82 -4 50 -7 53 -142 191 -100
102 -140 149 -145 172 -5 27 11 76 94 286 98 244 110 281 94 289 -5 2 -205
201 -445 443 l-438 440 155 0 155 0 410 -410 c350 -350 411 -416 416 -445 5
-29 -13 -83 -96 -294 l-102 -258 103 -104 c99 -100 105 -104 147 -104 23 0 57
-6 75 -13 48 -21 106 -90 113 -136 l6 -40 54 24 c186 82 434 251 629 428 l59
54 -51 17 c-87 29 -143 109 -143 206 0 33 -36 71 -606 641 l-606 606 29 18
c15 10 54 43 86 74 l58 55 602 -602 c528 -528 606 -602 632 -602 83 0 173 -58
195 -126 15 -45 22 -39 105 85 115 174 205 354 271 536 l32 90 -30 41 c-31 44
-50 106 -42 139 4 15 -20 45 -99 123 l-104 103 -251 -100 c-144 -58 -267 -101
-286 -101 -47 0 -87 32 -286 236 -96 98 -253 259 -348 356 l-174 177 21 93
c11 51 23 111 26 132 l7 39 393 -393 394 -394 260 103 c216 86 265 103 293 97
25 -5 66 -39 169 -142 95 -95 138 -131 142 -121 3 8 11 77 18 153 26 299 -13
637 -107 936 -34 104 -118 314 -133 330 -3 4 -159 -146 -346 -333z"/>
</g>
</svg>
